<svg width="200" height="197" viewBox="0 0 200 197" fill="none" xmlns="http://www.w3.org/2000/svg">
<path d="M18.75 13.0993C17.0924 13.0993 15.5027 13.7444 14.3306 14.8927C13.1585 16.0411 12.5 17.5985 12.5 19.2225V55.9616C12.5 57.5856 11.8415 59.1431 10.6694 60.2914C9.49732 61.4397 7.9076 62.0848 6.25 62.0848C4.5924 62.0848 3.00269 61.4397 1.83058 60.2914C0.65848 59.1431 0 57.5856 0 55.9616V19.2225C0 14.3506 1.97544 9.6782 5.49175 6.23323C9.00805 2.78827 13.7772 0.852905 18.75 0.852905L56.25 0.852905C57.9076 0.852905 59.4973 1.49803 60.6694 2.64635C61.8415 3.79467 62.5 5.35213 62.5 6.9761C62.5 8.60007 61.8415 10.1575 60.6694 11.3059C59.4973 12.4542 57.9076 13.0993 56.25 13.0993H18.75ZM137.5 6.9761C137.5 5.35213 138.158 3.79467 139.331 2.64635C140.503 1.49803 142.092 0.852905 143.75 0.852905L181.25 0.852905C186.223 0.852905 190.992 2.78827 194.508 6.23323C198.025 9.6782 200 14.3506 200 19.2225V55.9616C200 57.5856 199.342 59.1431 198.169 60.2914C196.997 61.4397 195.408 62.0848 193.75 62.0848C192.092 62.0848 190.503 61.4397 189.331 60.2914C188.158 59.1431 187.5 57.5856 187.5 55.9616V19.2225C187.5 17.5985 186.842 16.0411 185.669 14.8927C184.497 13.7444 182.908 13.0993 181.25 13.0993H143.75C142.092 13.0993 140.503 12.4542 139.331 11.3059C138.158 10.1575 137.5 8.60007 137.5 6.9761ZM6.25 135.563C7.9076 135.563 9.49732 136.208 10.6694 137.357C11.8415 138.505 12.5 140.062 12.5 141.686V178.426C12.5 180.049 13.1585 181.607 14.3306 182.755C15.5027 183.904 17.0924 184.549 18.75 184.549H56.25C57.9076 184.549 59.4973 185.194 60.6694 186.342C61.8415 187.49 62.5 189.048 62.5 190.672C62.5 192.296 61.8415 193.853 60.6694 195.002C59.4973 196.15 57.9076 196.795 56.25 196.795H18.75C13.7772 196.795 9.00805 194.86 5.49175 191.415C1.97544 187.97 0 183.297 0 178.426L0 141.686C0 140.062 0.65848 138.505 1.83058 137.357C3.00269 136.208 4.5924 135.563 6.25 135.563ZM193.75 135.563C195.408 135.563 196.997 136.208 198.169 137.357C199.342 138.505 200 140.062 200 141.686V178.426C200 183.297 198.025 187.97 194.508 191.415C190.992 194.86 186.223 196.795 181.25 196.795H143.75C142.092 196.795 140.503 196.15 139.331 195.002C138.158 193.853 137.5 192.296 137.5 190.672C137.5 189.048 138.158 187.49 139.331 186.342C140.503 185.194 142.092 184.549 143.75 184.549H181.25C182.908 184.549 184.497 183.904 185.669 182.755C186.842 181.607 187.5 180.049 187.5 178.426V141.686C187.5 140.062 188.158 138.505 189.331 137.357C190.503 136.208 192.092 135.563 193.75 135.563Z" fill="white"/>
<path d="M40 168.205C40 168.205 28 168.205 28 156.5C28 144.795 40 109.681 100 109.681C160 109.681 172 144.795 172 156.5C172 168.205 160 168.205 160 168.205H40ZM136 62.8627C136 72.1755 132.207 81.1069 125.456 87.6921C118.705 94.2772 109.548 97.9767 100 97.9767C90.4522 97.9767 81.2955 94.2772 74.5442 87.6921C67.7928 81.1069 64 72.1755 64 62.8627C64 53.5499 67.7928 44.6185 74.5442 38.0334C81.2955 31.4482 90.4522 27.7487 100 27.7487C109.548 27.7487 118.705 31.4482 125.456 38.0334C132.207 44.6185 136 53.5499 136 62.8627Z" fill="white"/>
</svg>
